<?xml version="1.0" encoding="UTF-8"?>
<svg id="Layer_1" data-name="Layer 1" xmlns="http://www.w3.org/2000/svg" viewBox="-110 -160 900 1340">
  <defs>
    <style>
      .cls-1 {
        fill: #1a0a3d;
        stroke-width: 0px;
      }
    </style>
  </defs>
  <path class="cls-1" d="M779.5,1096.49c7-26,14-85,12-125s-19-87-24-98,0-10-19-39-66-37-66-37c0,0-1-2-4.4-4-3.4-2-23.6-18-50.6-23s-45-28-49-29-20,20-58,30-44,22-44,22c0,0-1,2-4,3s-24.98,6.36-50,24c-25.02,17.64-34,43-33,107s-6,78-14,119-14,61-14,111,10,61,22,106,0,66,11,110,51,61,113,81,64,40,68,40,27-25,70-37,89-36,110-65,8-116,9-150,8-120,15-146ZM763.91,1167.68c-1.59,18.19-2.41,43.81-3.41,71.81s5,91,3,117-13,42-41,62-74,34-99,43-44,27-46.83,26.52c-2.83-.48-8.17-8.52-19.17-16.52s-42-17-55-22-56-20-67-27-30-24-37-46-4-47-6-80-12-57-19-79-9-53-9-75,11-78,15-95,12-44,13-66-3-70,1-98,6-35,23-53,41-26,51-30,6-1,21-12,18-6,46-17,43-25,43-25c1-1,12,12,29,20s19,5,34,12,37,20,40,22,6-1,30,9,40,33,49,54,19,51,25,83,1,94-4,121-15,82-16.59,100.19Z"/>
</svg>