<svg width="1150" height="220" viewBox="0 0 1150 220" fill="none" xmlns="http://www.w3.org/2000/svg">
<path d="M1150 0V148.5H707.196C698.596 148.5 690.192 151.073 683.065 155.888L680.411 157.682C677.173 159.869 673.513 161.355 669.666 162.042L667.443 162.438C663.564 163.131 659.97 164.935 657.096 167.63C654.733 169.845 651.876 171.464 648.762 172.354L645.485 173.29C639.286 175.061 633.709 178.537 629.388 183.321L628.576 184.22C624.261 188.998 618.82 192.623 612.749 194.766L606.183 197.083C599.792 199.339 593.915 202.845 588.895 207.398L575 220L561.105 207.398C556.085 202.845 550.208 199.339 543.817 197.083L537.251 194.766C531.18 192.623 525.739 188.998 521.424 184.22L520.612 183.321C516.291 178.537 510.714 175.061 504.515 173.29L501.238 172.354C498.124 171.464 495.267 169.845 492.904 167.63C490.03 164.935 486.436 163.131 482.557 162.438L480.334 162.042C476.487 161.355 472.827 159.869 469.589 157.682L466.935 155.888C459.808 151.073 451.404 148.5 442.804 148.5H0V0H1150Z" fill="#D9D9D9"/>
</svg>
