<svg width="1085" height="149" viewBox="0 0 1085 149" fill="none" xmlns="http://www.w3.org/2000/svg">
<path d="M1064.41 0.191339C1070.58 -0.0582096 1077.17 -0.0692894 1084.2 0.191339H1064.41C987.713 3.29314 975.459 43.2339 966.204 56.1913C956.204 70.1914 924.704 113.191 842.704 100.191C776.304 84.5914 739.038 100.691 728.704 110.691C648.704 80.6915 596.704 99.6914 582.204 113.691C567.704 127.691 568.204 124.191 553.704 128.191C542.104 131.391 534.538 142.858 532.204 148.191C529.871 142.858 522.304 131.391 510.704 128.191C496.204 124.191 496.704 127.691 482.204 113.691C467.704 99.6914 415.704 80.6915 335.704 110.691C325.371 100.691 288.104 84.5914 221.704 100.191C139.704 113.191 108.204 70.1914 98.2041 56.1913C89.0211 43.3351 76.8865 3.91507 1.78516 0.27044L0 0.191339H1064.41Z" fill="#D9D9D9"/>
</svg>
