<?xml version="1.0" encoding="UTF-8" ?>
<svg width="1819" height="264" viewBox="0 0 1819 264" version="1.1" xmlns="http://www.w3.org/2000/svg">
  <path
    fill="none"
    stroke="rgba(212, 175, 100, 0.7)"
    stroke-width="1.5"
    d="M 5.71 1.52 C 8.48 1.35 11.25 1.02 14.03 1.00 C 604.68 1.00 1195.33 1.00 1785.98 1.00 C 1795.78 1.20 1805.63 0.51 1815.41 1.59 C 1792.18 4.47 1768.89 8.18 1746.57 15.40 C 1731.68 20.30 1717.04 27.68 1706.73 39.81 C 1695.11 53.25 1689.39 70.35 1682.22 86.31 C 1672.01 108.22 1656.83 127.81 1638.17 143.17 C 1629.80 150.08 1619.89 154.69 1610.04 159.07 C 1579.50 171.95 1546.14 178.23 1513.00 177.25 C 1469.76 176.65 1427.85 164.05 1384.81 161.21 C 1371.56 161.03 1358.22 160.50 1345.08 162.58 C 1334.27 163.60 1323.77 166.45 1313.42 169.56 C 1303.40 173.20 1293.29 176.78 1283.99 182.05 C 1275.69 186.37 1268.29 192.20 1261.28 198.35 C 1242.25 186.00 1220.50 178.73 1198.83 172.56 C 1189.93 170.42 1181.18 167.61 1172.12 166.22 C 1158.55 163.64 1144.78 162.46 1131.04 161.38 C 1104.45 160.56 1077.54 163.68 1052.29 172.26 C 1034.84 178.31 1017.81 186.58 1004.12 199.19 C 997.68 205.18 991.08 211.27 982.98 214.95 C 974.55 219.25 965.30 221.50 956.10 223.45 C 951.16 224.45 946.70 226.88 942.39 229.38 C 933.49 233.68 925.68 239.97 918.82 247.04 C 914.34 251.76 911.51 257.70 908.91 263.60 C 905.80 259.06 904.15 253.65 900.51 249.45 C 891.23 238.19 878.49 230.23 865.17 224.59 C 853.67 221.06 841.54 219.09 830.99 212.97 C 820.53 207.59 813.61 197.61 804.02 191.04 C 798.29 187.31 792.66 183.35 786.40 180.54 C 756.00 166.83 722.44 160.28 689.13 161.43 C 671.87 162.16 654.78 165.08 637.88 168.52 C 620.76 172.70 603.61 176.96 587.08 183.13 C 576.41 186.72 565.82 191.18 556.97 198.29 C 547.63 190.22 537.67 182.64 526.30 177.63 C 512.41 170.49 497.11 166.83 481.91 163.73 C 461.15 160.36 439.91 160.11 419.02 162.46 C 407.44 163.44 396.05 165.86 384.53 167.38 C 378.35 168.44 372.25 170.00 366.00 170.68 C 348.83 173.92 331.51 176.92 313.99 177.08 C 275.38 179.01 236.35 171.21 201.37 154.79 C 189.26 149.32 179.02 140.58 169.82 131.14 C 155.89 116.81 144.52 99.95 136.72 81.54 C 130.17 66.13 124.01 49.96 112.33 37.58 C 100.86 25.31 84.98 18.45 69.16 13.71 C 48.46 7.62 27.07 4.29 5.71 1.52 Z"
  />
</svg>
