<?xml version="1.0" encoding="UTF-8"?>
<svg id="Layer_1" data-name="Layer 1" xmlns="http://www.w3.org/2000/svg" viewBox="0 0 2543.72 220">
  <defs>
    <style>
      .cls-1 {
        fill: #0a0520;
        stroke-width: 0px;
      }
    </style>
  </defs>
  <path class="cls-1" d="M2166.27.02c-39.5,5.89-77.92,18.75-112.31,39.19-30.85,18.33-54.29,43.21-77.81,69.83-24.21,27.39-51.21,46.84-87.32,55.53-40.17,9.67-82.16,6.83-122.7,1.2-37.86-5.26-75.35-14.01-113.45-5.13-18.13,4.23-39.42,11.71-54.21,23.52-3.49,2.79-.73,2.07-3.74,1.3-2.09-.54-4.41-2.26-6.38-3.16-22.95-10.55-48.11-16.52-72.86-20.96-35.55-6.39-75.05-12.67-110.33-1.65-21.43,6.69-34.88,20.88-51.4,34.9-13.12,11.13-29.27,12.43-44.59,18.52s-29.09,18.7-38.16,33.14h2.59c-7.84-12.68-18.73-23.7-32.1-30.51-14.77-7.53-31.58-7.92-45.63-17.46s-24.82-24.12-40.85-32.33c-30.26-15.51-65.97-12.89-98.58-8.7-30.69,3.94-61.77,9.85-90.68,21.2-4.88,1.92-10.55,6-15.61,7.06-3.33.7.55.73-2.86-.71-9.03-3.79-17.22-10.48-26.34-14.49-38.99-17.15-78.46-14.58-119.39-7.92-73.62,11.97-160.43,19.48-218.05-37.47-12.05-11.91-22.62-25.22-34.09-37.67-13.36-14.5-27.98-27.69-44.23-38.88C467.63,22.49,423.57,6.76,378.63.06c-1.89-.28-2.7,2.61-.8,2.89,44.26,6.6,87.47,21.94,124.63,47.16,31.28,21.23,52.46,50.74,78.94,76.92,57.08,56.41,142.47,50.69,215.79,39.08,25.04-3.97,50.09-8.39,75.53-5.67,27.31,2.91,53.07,13.2,75.64,28.69.42.29,1.09.27,1.51,0,8.61-5.36,18.72-8.79,28.27-11.97,30.62-10.21,62.93-15.67,94.97-18.82,28.09-2.76,58.6-2.3,83.8,12.03,13.65,7.76,23.09,19.88,35.5,29.1,11.3,8.4,24.18,10.65,37.24,14.72,17.52,5.46,31.81,18.12,41.36,33.57.6.98,1.99.96,2.59,0,8.16-12.99,19.69-24.23,33.75-30.64,13.68-6.24,28.55-7.14,41.59-15.27,12.17-7.59,20.96-19.58,32.85-27.66,21.85-14.84,48.71-18.07,74.54-17.01,34.5,1.41,69.93,7.54,103,17.58,12.01,3.65,24.94,7.64,35.7,14.34.43.27,1.09.29,1.51,0,19.58-13.43,41.56-23.07,65.01-27.2,23.94-4.22,47.95-1.95,71.77,1.84,38.7,6.17,77.71,12.14,117.03,9.5,38.34-2.57,76.35-13.41,105.62-39.2,25.8-22.73,44.88-51.74,71.95-73.3,39.79-31.69,89.12-50.37,139.14-57.82,1.9-.28,1.09-3.17-.8-2.89h0Z"/>
  <path class="cls-1" d="M601.11,140.33c-10.75.31-21.5.76-32.25,1.12-2.38.08-5.07-.18-7.41.28-1.73.34-2.4,1.36-3.31,2.75-2.75,4.16-6.73,5.99-11.66,5.78-2.73-.12-3.27,1.1-4.08,3.37-.92,2.55-2.81,4.99-4.48,7.08-4.93,6.15-11.29,11.06-19.26,12.08-7.5.96-15.25.65-22.8.68-13.21.06-26.43.09-39.64.12-18.85.04-37.71.07-56.56.09-22.32.03-44.64.05-66.95.06s-46.73.02-70.09.02c-22.06,0-44.12-.01-66.18-.03-18.41-.02-36.82-.04-55.22-.09-12.37-.03-24.74-.06-37.11-.15-3.24-.02-6.48-.04-9.72-.1-.55,0-2.04-.03-2.05-.03-4.18-.6-10.48-3.52-14.17-6.49-5-4.03-8.03-11.32-9.59-17.43-.16-.64-.8-1.1-1.45-1.1h-3.26c-1.39,0-4.02.45-5.27-.22-1.66-.9-2.53-3.98-3.03-5.68-.19-.63-.78-1.1-1.45-1.1H1.45c-1.93,0-1.93,3,0,3h52.66l-1.45-1.1c.73,2.5,1.88,5.54,4.02,7.17,2.58,1.96,7.35.93,10.43.93l-1.45-1.1c1.53,5.99,4.43,12.81,8.75,17.29s10.22,6.78,15.87,8.38c2.2.63,4.46.5,6.74.53,10.17.12,20.34.14,30.52.17,16.99.06,33.97.08,50.96.1,21.51.03,43.03.04,64.54.05,23.44,0,46.87,0,70.31,0s46.07-.02,69.1-.05c20.3-.02,40.6-.05,60.89-.09,14.97-.03,29.94-.06,44.9-.12,7.32-.03,14.65.04,21.97-.14,3.33-.08,6.68-.27,9.97-.79,7.2-1.13,13.24-5.34,18.08-10.66,2.15-2.37,4.13-4.97,5.72-7.75.48-.85.88-1.71,1.27-2.6.56-1.31.44-1.3,2.1-1.23,3.68.15,7.32-1.16,10.14-3.5,1.51-1.25,2.21-2.76,3.45-4.18,1.64-1.89,6.13-1.15,8.51-1.23,10.56-.35,21.12-.8,31.68-1.1,1.93-.05,1.93-3.06,0-3h0Z"/>
  <path class="cls-1" d="M2542.27,141.33c-10.75.31-21.5.76-32.25,1.12-2.38.08-5.07-.18-7.41.28-1.73.34-2.4,1.36-3.31,2.75-2.75,4.16-6.73,5.99-11.66,5.78-2.73-.12-3.27,1.1-4.08,3.37-.92,2.55-2.81,4.99-4.48,7.08-4.93,6.15-11.29,11.06-19.26,12.08-7.5.96-15.25.65-22.8.68-13.21.06-26.43.09-39.64.12-18.85.04-37.71.07-56.56.09-22.32.03-44.64.05-66.95.06-23.36.01-46.73.02-70.09.02-22.06,0-44.12-.01-66.18-.03-18.41-.02-36.82-.04-55.22-.09-12.37-.03-24.74-.06-37.11-.15-3.24-.02-6.48-.04-9.72-.1-.55,0-2.04-.03-2.05-.03-4.18-.6-10.48-3.52-14.17-6.49-5-4.03-8.03-11.32-9.59-17.43-.16-.64-.8-1.1-1.45-1.1h-3.26c-1.39,0-4.02.45-5.27-.22-1.66-.9-2.53-3.98-3.03-5.68-.19-.63-.78-1.1-1.45-1.1h-52.66c-1.93,0-1.93,3,0,3h52.66l-1.45-1.1c.73,2.5,1.88,5.54,4.02,7.17,2.58,1.96,7.35.93,10.43.93l-1.45-1.1c1.53,5.99,4.43,12.81,8.75,17.29,4.14,4.3,10.22,6.78,15.87,8.38,2.2.63,4.46.5,6.74.53,10.17.12,20.34.14,30.52.17,16.99.06,33.97.08,50.96.1,21.51.03,43.03.04,64.54.05,23.44,0,46.87,0,70.31,0s46.07-.02,69.1-.05c20.3-.02,40.6-.05,60.89-.09,14.97-.03,29.94-.06,44.9-.12,7.32-.03,14.65.04,21.97-.14,3.33-.08,6.68-.27,9.97-.79,7.2-1.13,13.24-5.34,18.08-10.66,2.15-2.37,4.13-4.97,5.72-7.75.48-.85.88-1.71,1.27-2.6.56-1.31.44-1.3,2.1-1.23,3.68.15,7.32-1.16,10.14-3.5,1.51-1.25,2.21-2.76,3.45-4.18,1.64-1.89,6.13-1.15,8.51-1.23,10.56-.35,21.12-.8,31.68-1.1,1.93-.05,1.93-3.06,0-3h0Z"/>
</svg>