<?xml version="1.0" encoding="UTF-8"?>
<svg id="Layer_3" data-name="Layer 3" xmlns="http://www.w3.org/2000/svg" viewBox="-210 -670 1260 2100">
  <defs>
    <style>
      .cls-1 {
        fill: none;
        stroke: #d4af64;
        stroke-miterlimit: 10;
        stroke-width: 4px;
      }
    </style>
  </defs>
  <path class="cls-1" d="M1043.98,1436.28c-66.52-.17-133.05-.33-199.57-.5,0,0-.5-3.5-8.5-13.5s-16-17-16-17c0,0-2-652,0-657s17.64-11.84,23.5-25.5c4.5-10.5,14.1-9.5,14.1-9.5,127.47.07,249.03.64,376.5.71,0,0,15.5-1.5,20,9,5.86,13.66,21.5,20.5,23.5,25.5s0,657,0,657c0,0-8,7-16,17s-8.5,13.5-8.5,13.5l-199.57.5-9.45-.21Z"/>
</svg>