<?xml version="1.0" encoding="UTF-8"?>
<svg id="Layer_1" data-name="Layer 1" xmlns="http://www.w3.org/2000/svg" version="1.1" viewBox="0 0 463.37 727.24">
  <defs>
    <style>
      .cls-1 {
        fill: none;
        stroke: #ffc3ad;
        stroke-miterlimit: 10;
        stroke-width: 4px;
      }
    </style>
  </defs>
  <path class="cls-1" d="M226.96,725.03c-66.52-.17-131.45-.12-197.98-.29,0,0-2.1-3.71-10.1-13.71s-16-17-16-17c0,0-2-652,0-657s17.64-11.84,23.5-25.5C30.89,1.03,40.49,2.03,40.49,2.03c127.47.07,249.03.64,376.5.71,0,0,15.5-1.5,20,9,5.86,13.66,21.5,20.5,23.5,25.5s0,657,0,657c0,0-8,7-16,17s-10.5,13.5-10.5,13.5l-197.57.5-9.45-.21Z"/>
</svg>